<?xml version="1.0" encoding="utf-8"?>
<!-- Generator: Adobe Illustrator 13.0.0, SVG Export Plug-In . SVG Version: 6.00 Build 14948)  -->
<!DOCTYPE svg PUBLIC "-//W3C//DTD SVG 1.1//EN" "http://www.w3.org/Graphics/SVG/1.1/DTD/svg11.dtd">
<svg version="1.1" id="Layer_1" xmlns="http://www.w3.org/2000/svg" xmlns:xlink="http://www.w3.org/1999/xlink" x="0px" y="0px"
	 width="570.4px" height="128.4px" viewBox="0 0 570.4 128.4" enable-background="new 0 0 570.4 128.4" xml:space="preserve">
<g>
	<path d="M12.8,39.2C11.731,46.131,7.462,51.063,0,54V53.6C4,51.2,6.4,48.662,7.2,46c-3.738,0.264-6,0.932-6.8,2
		c0.531-3.2,1.462-5.469,2.8-6.8C3.731,40.663,6.931,40,12.8,39.2z M206.4,60.4c0,4-0.8,7.462-2.4,10.398
		c-1.6,3.464-4,5.201-7.2,5.201c-2.137,0-3.737-0.139-4.8-0.399c0,1.331,0,2.662,0,4c0,5.331-0.669,8.662-2,10
		C179.331,101.862,169.331,108,160,108c-4,0-7.069-1.869-9.2-5.601c-1.869-2.938-2.8-6.27-2.8-10c0-6.138,1.462-13.737,4.4-22.8
		c-3.2,2.399-8.538,7.331-16,14.8c-8.269,8-14.269,13.601-18,16.8c-6.938,5.332-12.538,8-16.8,8c-3.2,0-6-1.537-8.4-4.6
		c-2.4-3.068-3.6-6.601-3.6-10.601c0-4.801,1.6-10.938,4.8-18.399c-0.538,0.262-1.2,0.399-2,0.399c-1.869,0-3.469-0.139-4.8-0.399
		c0,1.331,0,2.662,0,4c0,5.331-0.538,8.53-1.6,9.6c-12.538,12.263-22.669,18.4-30.4,18.4c-4,0-7.069-1.601-9.2-4.802
		c-2.137-3.198-3.2-7.067-3.2-11.6c0-1.6,0.662-5.137,2-10.6c1.331-5.47,2-10.2,2-14.2c0-3.2-0.4-6.27-1.2-9.2
		c-3.2-0.8-6.4-3.069-9.6-6.8c-3.2-3.737-5.337-5.601-6.4-5.601c-1.337,0-3.469,2.264-6.4,6.801c-2.138,3.462-4,6.931-5.6,10.399
		c6.131,3.2,9.2,10.131,9.2,20.799h-2C22.263,81.462,19.462,80,16.8,78.4c-2.668-1.868-4-4.669-4-8.399
		c-6.137,2.932-9.2,6.932-9.2,12c0,0.531,2.6,6.662,7.8,18.399c5.2,11.73,7.8,21.063,7.8,28h-0.8c-0.538-4.27-3.6-12.138-9.2-23.602
		C4.131,94.131,1.6,86.4,1.6,81.6c0-6.938,4.131-13.338,12.4-19.2c1.063-3.469,3.731-8.137,8-14C26.8,41.462,30.663,38,33.6,38
		c1.063,0,3.6,2.4,7.6,7.2c-0.538-1.338-0.8-2.669-0.8-4c0-3.469,1.2-6.4,3.6-8.8c2.4-2.4,5.331-3.601,8.8-3.601
		c2.663,0,7.863,1.264,15.6,3.801c7.731,2.53,14.531,3.8,20.4,3.8l-4.8,8c-3.737,0.531-9.737,2.931-18,7.2
		c-7.2,3.73-13.2,5.6-18,5.6c-0.269,0-0.8,0-1.6,0c1.332,3.731,2,7.731,2,12c0,3.463-0.469,7.332-1.4,11.6
		c-0.938,4.265-1.4,6.663-1.4,7.201c0,8.531,3.462,12.799,10.4,12.799c5.063,0,10.931-2.668,17.6-8
		c4.262-3.469,8.262-7.067,12-10.799c0-1.869-1.069-4.801-3.2-8.801c-1.069-2.4-2.269-4.8-3.6-7.199l2.8-6.8
		c2.4,3.731,4.131,6.262,5.2,7.599c1.863,1.863,3.863,2.802,6,2.802c2.663,0,4.8-1.068,6.4-3.2c0-4-0.269-7.869-0.8-11.601
		l-6.8-42.399c-0.269-2.663-0.8-4.663-1.6-6l2-5.601L99.2,14v2.4L95.6,12.8c-0.269,0.538-0.269,1.069,0,1.601l6,40.399
		c0.262,1.063,0.4,2.933,0.4,5.601c0,8-2.138,12.931-6.4,14.8c-2.669,5.863-4,11.063-4,15.6c0,2.4,0.931,4.663,2.8,6.802
		c2.131,2.399,4.663,3.6,7.6,3.6c4.8,0,10.931-3.6,18.4-10.8c6.663-6.138,13.332-12.399,20-18.8c5.063-4.271,10-7.869,14.8-10.801
		c-1.338-0.536-3.338-2-6-4.399c-3.738-2.938-5.6-6.27-5.6-10c0-6.137,3.331-9.2,10-9.2c12.8,0,26.663,2.262,41.6,6.8l-5.2,8
		c-4.8,1.601-13.469,5.063-26,10.4c1.331,2.132,2.8,7.2,4.4,15.2c-7.2,0-10.8-2.139-10.8-6.4c0-0.537,0.131-1.469,0.4-2.8
		c0.263-1.337,0.4-2.27,0.4-2.8c-1.069,0.8-2.668,1.861-4.8,3.198c-2.669,8.531-4,14.933-4,19.201c0,8.531,3.6,12.799,10.8,12.799
		c7.731,0,17.6-6.268,29.6-18.799c-0.269-1.869-1.337-4.801-3.2-8.801c-1.337-2.137-2.537-4.4-3.6-6.8l2.4-7.2
		c2.4,4,4.262,6.531,5.6,7.599c1.6,1.863,3.6,2.802,6,2.802c2.662,0,4.8-1.068,6.4-3.2c-0.269-4-0.669-7.869-1.2-11.601l-6.4-42
		c-0.538-2.931-1.069-5.063-1.6-6.399l2-5.601l6.8,13.2v2.4L200,12.8c-0.269,0.801-0.269,1.47,0,2l6,40
		C206.263,55.862,206.4,57.731,206.4,60.4z M27.6,24.8c0,4.531-1.469,6.801-4.4,6.801c-2.669,0-4-1.47-4-4.4
		c0-1.869,0.4-4.131,1.2-6.8c1.6-3.2,2.4-5.063,2.4-5.601c0.531,2.139,0.663,3.601,0.4,4.4C26.131,20.8,27.6,22.669,27.6,24.8z
		 M26.4,26.4c-1.069-1.337-2.668-2.27-4.8-2.8c-1.069,1.063-1.6,1.73-1.6,2C20,27.2,20.931,28,22.8,28
		C24.131,28,25.331,27.462,26.4,26.4z M37.2,92.4l-2.8,4.398c-1.6,0.531-3.337,0.933-5.2,1.201c-2.938,1.063-4.4,2.263-4.4,3.601
		c1.332,5.331,2,9.063,2,11.199c0,4.801-0.137,7.601-0.4,8.399c0-2.938-0.538-6.8-1.6-11.6c-1.068-4.802-1.6-7.869-1.6-9.2
		c0-2.399,0.862-4,2.6-4.8c1.731-0.802,3.4-1.47,5-2c-1.068-0.802-2-1.2-2.8-1.2l-2.4,2v-2c0.8-1.069,1.462-2.069,2-3
		c0.531-0.938,1.2-1.399,2-1.399C31.2,88,33.731,89.462,37.2,92.4z M40.4,72.4l-3.2,6.398L30.4,75.6L32.8,70l-6-3.201l2.8-6.398
		l7.2,3.2L34,69.2L40.4,72.4z M74.4,41.6c-1.6-0.27-5.337-1.2-11.2-2.801C58.4,37.2,54.662,36.4,52,36.4c-6.138,0-9.2,2.263-9.2,6.8
		c0,1.862,0.663,3.731,2,5.6c1.063,1.063,2.4,1.601,4,1.601c3.731,0,8-1.069,12.8-3.2C69.331,43.731,73.6,41.862,74.4,41.6z M78,72
		c-4,10.131-9.069,15.2-15.2,15.2c-4.537,0-6.8-2.137-6.8-6.4c0-3.469,2.931-7.067,8.8-10.799C63.732,69.2,62.663,68.8,61.6,68.8
		c-1.337,0-2.669,0.663-4,2v-1.6c1.331-2.938,3.2-4.4,5.6-4.4c4,0,7.2,0.531,9.6,1.602L68,70.799
		c-1.869,0.531-3.938,1.732-6.2,3.602c-2.269,1.862-3.4,3.462-3.4,4.8c0,2.4,2.131,3.6,6.4,3.6c2.932,0,5.863-1.6,8.8-4.799
		C74.931,75.862,76.4,73.862,78,72z M85.2,17.6c0,3.199-1.069,4.8-3.2,4.8c-1.069,0-2.138-0.531-3.2-1.601c-0.8,2.139-2,3.2-3.6,3.2
		c-1.869,0-2.8-1.2-2.8-3.6c0-1.601,0-3.2,0-4.8c-0.538,0.538-1.2,1.337-2,2.399v-1.6c0.531-1.331,1.863-3.063,4-5.2
		c-0.8,5.6-0.269,8.4,1.6,8.4c1.331,0,2-0.932,2-2.801c0-0.8-0.269-2.399-0.8-4.8L78.4,9.6c0.8,1.337,1.332,3.337,1.6,6
		c0,1.869,0.663,2.8,2,2.8c0.8,0,1.2-0.663,1.2-2L82,11.2l1.6-2.8C84.663,11.869,85.2,14.938,85.2,17.6z M108,86.4
		c-0.269,3.73-1.6,5.601-4,5.601s-3.6-1.201-3.6-3.601c0-3.469,1.863-7.469,5.6-12c-1.869,4.263-2.8,7.331-2.8,9.2
		c0,1.861,0.662,2.8,2,2.8c1.331,0,2.131-0.669,2.4-2H108z M116,63.2c0,5.599-0.669,9.863-2,12.8h-0.8c0.262-5.869,0-12-0.8-18.399
		l-7.2-45.2c-0.269-2.663-0.8-4.663-1.6-6l2-5.601l6.8,13.2v2.4l-3.2-3.601c-0.269,0.538-0.269,1.069,0,1.601l6.4,42.8
		C115.862,58.531,116,60.531,116,63.2z M134,13.2c0,1.068-0.4,2.27-1.2,3.6c-0.8-0.8-1.469-1.199-2-1.199
		c-1.337,0-2.4,1.869-3.2,5.6c-0.538,2.4-0.938,5.063-1.2,8c-0.8-2.138-2.137-4.938-4-8.4c-0.269,1.339-1.069,2-2.4,2
		c-2.138,0-3.2-1.199-3.2-3.6c0-2.932,0.932-4.4,2.8-4.4c2.4,0,4.531,2.801,6.4,8.4c1.6-9.6,3.6-14.4,6-14.4
		C133.331,8.8,134,10.269,134,13.2z M134.4,35.6c-1.069,7.199-5.2,12.131-12.4,14.8l-0.4-0.4c4-2.399,6.4-4.938,7.2-7.6
		c-3.737,0.263-6,0.931-6.8,2c0.531-3.2,1.462-5.469,2.8-6.8C125.331,37.063,128.531,36.4,134.4,35.6z M134,60.4l-3.2,6.398
		L124,63.6l3.2-6.4L134,60.4z M141.2,103.2c0,3.731-1.338,5.601-4,5.601c-2.4,0-3.6-1.199-3.6-3.601c0-3.469,1.862-7.469,5.6-12h0.4
		c-2.138,4.263-3.2,7.332-3.2,9.2c0,1.862,0.663,2.8,2,2.8c1.332,0,2.131-0.668,2.4-2H141.2z M148.4,17.6c0,3.199-0.668,6.8-2,10.8
		c0.263-2.137,0.4-4.531,0.4-7.2c0-4.8-1.469-8.531-4.4-11.2l0.4-4.8c1.863,1.068,3.263,2.938,4.2,5.6
		C147.931,13.469,148.4,15.737,148.4,17.6z M181.6,49.2c-7.469-3.2-16.138-4.8-26-4.8c-4.8,0-8,0.531-9.6,1.6
		c0,0.531,1.731,2.063,5.2,4.601c3.462,2.53,6.4,5,8.8,7.399C165.6,55.331,172.8,52.4,181.6,49.2z M190.4,4
		c0,1.601-0.469,3.47-1.4,5.601c-0.938,2.137-2.069,3.736-3.4,4.8c1.6-3.2,2.4-5.462,2.4-6.8c-13.6,4.269-26,11.469-37.2,21.6
		c0.263-1.338,0.531-2.669,0.8-4c4.531-4.531,10.6-8.8,18.2-12.8C177.4,8.4,184.263,5.6,190.4,4z M180.4,74.4
		c0.531,2.132,0,3.331-1.6,3.601c-0.8,0.263-2-0.27-3.6-1.601c-1.069,1.862-2.8,4.398-5.2,7.601c-2.938,3.462-6.8,5.601-11.6,6.399
		l-3.6,0.8c3.731-1.869,7.863-4.537,12.4-8c3.731-2.938,6.262-5.869,7.6-8.8c1.063-2.138,2-3.337,2.8-3.602
		C178.931,70.532,179.862,71.731,180.4,74.4z M183.6,26.8c0,3.2-1.069,4.801-3.2,4.801c-1.069,0-2.137-0.669-3.2-2
		c-0.8,2.131-2,3.199-3.6,3.199s-2.538-1.067-2.8-3.199c0-1.869,0-3.601,0-5.2c-0.537,0.8-1.068,1.6-1.6,2.399V25.6
		c0.262-1.337,1.462-3.063,3.6-5.2c-0.8,5.332-0.269,8,1.6,8c1.332,0,2-0.8,2-2.4c0-0.8-0.269-2.53-0.8-5.2l1.6-2
		c0.531,1.069,0.931,2.938,1.2,5.601c0,1.863,0.663,2.8,2,2.8c0.8,0,1.2-0.538,1.2-1.6c0-0.27-0.4-2-1.2-5.2l1.6-3.2
		C183.063,20.669,183.6,23.869,183.6,26.8z M179.6,75.6c-1.069-1.601-2.269-2-3.6-1.2C177.6,75.462,178.8,75.862,179.6,75.6z
		 M216,92c0,2.662-0.8,4-2.4,4c-1.069,0-2.269-0.399-3.6-1.201c-4.538,8.265-12.938,12.265-25.2,12h-0.4V106.4
		c12-2.938,20.131-7.069,24.4-12.399c-1.337-0.538-2-1.338-2-2.399c0-0.802,0.4-1.738,1.2-2.802c0.8-1.067,1.462-1.6,2-1.6l-0.4-1.6
		l0.4-0.4c0.531,0,1.462,0.531,2.8,1.6v0.4C214.931,89.6,216,91.2,216,92z M220.4,63.2c0,5.599-0.668,9.863-2,12.8h-0.8
		c0.262-5.869-0.138-12-1.2-18.399l-6.8-45.2c-0.538-2.663-1.069-4.663-1.6-6l2-5.601l6.8,13.2v2.4l-3.2-3.601
		c-0.269,0.538-0.4,1.069-0.4,1.601l6.8,42.8C220.263,58.531,220.4,60.531,220.4,63.2z M211.6,90c0-0.538-0.269-0.801-0.8-0.801
		c-1.068,0-1.869,0.4-2.4,1.2c0.531,0.8,1.332,1.331,2.4,1.601c0-0.27,0.131-0.601,0.4-1C211.462,90.6,211.6,90.262,211.6,90z
		 M570.4,75.2c0,3.731-0.869,6.801-2.602,9.2c-1.736,2.398-3.668,3.6-5.799,3.6c-4,0-6.8-2.538-8.4-7.601
		c-1.067,5.063-3.337,7.601-6.8,7.601c-3.2,0-5.337-2.139-6.398-6.399c-2.139,5.063-5.869,7.6-11.2,7.6
		c-1.869,0-3.4-0.737-4.602-2.199c-1.198-1.469-1.8-3.139-1.8-5c0-0.801,0-1.469,0-2c-37.6,11.73-76,17.601-115.2,17.601
		c-18.938,0-37.469-1.601-55.6-4.802c-17.338-2.668-30.27-6.268-38.8-10.799c0,3.73-0.139,7.462-0.4,11.199H312
		c-3.2-2.137-5.2-4.668-6-7.6c-0.269-2.139-0.469-4.139-0.6-6c-0.139-1.869-1.802-2.802-5-2.802c-2.938,0-7.938,4.265-15,12.802
		c-7.069,8.53-12.469,12.8-16.2,12.8c-2.138,0-4-1-5.6-3s-2.4-4.737-2.4-8.2c0-1.869,0.4-4.137,1.2-6.8
		c-1.337,0.531-2.668,0.8-4,0.8c-5.337,0-8.8-3.6-10.4-10.8c-0.538,8.8-4.538,13.2-12,13.2c-3.2,0-5.6-1.738-7.2-5.2
		c-1.068-2.669-1.469-5.737-1.2-9.2c0-0.537,0.262-2.4,0.8-5.6c0.263-2.669,0.4-5.069,0.4-7.2c-1.869,2.663-3.2,6.132-4,10.398
		c-0.537,2.933-1.068,5.863-1.6,8.802c-1.069,4.8-2.8,7.198-5.2,7.198c-1.869,0-3.469-1.536-4.8-4.6c-1.338-3.068-2-6.338-2-9.8
		c0-3.737,0.262-7.868,0.8-12.4l0.8,0.4c-0.269,2.131-0.4,4.263-0.4,6.398c0,9.063,1.863,13.602,5.6,13.602c1.331,0,2.531-2,3.6-6
		c1.862-6.669,2.931-10.538,3.2-11.601c1.863-4.536,4.263-7.6,7.2-9.199v5.199c-1.069,6.932-1.6,11.201-1.6,12.801
		c0,5.861,2.131,8.8,6.4,8.8c2.663,0,5-1.069,7-3.2c2-2.137,3-4.668,3-7.6L244,54l2-5.6c1.331,2.663,2.131,4.8,2.4,6.399
		c0.8,4.531,1.462,9.2,2,14c1.6,6.663,4.531,10,8.8,10c2.662,0,4.531-1.067,5.6-3.198c-1.337-2.938-2.668-5.869-4-8.802
		c-1.869-4.799-2.938-8.536-3.2-11.198l-1.2-2.801l1.6-5.6l5.6,8.8v2c-0.8-0.538-1.6-1.2-2.4-2c-0.269,0.531-0.269,0.8,0,0.8
		c3.731,8.531,5.6,14.4,5.6,17.601c0,4.8-1.068,8-3.2,9.601c-0.8,2.662-1.2,4.662-1.2,6c0,3.73,1.863,5.601,5.6,5.601
		c3.462,0,8.663-4.338,15.6-13c6.93-8.669,12.4-13,16.4-13c1.331,0,3.2,0.8,5.6,2.399l2-4.801C311.331,72.532,322.4,77.462,340.8,82
		c21.063,4.799,45.2,7.199,72.4,7.199c18.398,0,38.662-1.6,60.8-4.8c19.2-2.938,36.531-6.538,52-10.8c-0.537,0.8-0.8,1.729-0.8,2.8
		c0,1.601,0.531,3.063,1.6,4.398c1.063,1.332,2.263,2,3.602,2c2.661,0,5.462-1.337,8.398-4L544,73.6L544.4,74
		c0,0.531,0,1.063,0,1.601c0,3.729,1.331,5.6,4,5.6c1.331,0,2.8-1.199,4.398-3.6c1.862-3.2,3.2-5.068,4-5.601h0.4
		c0,0.531,0,1.063,0,1.601c0,2.131,0.73,4.063,2.2,5.8c1.463,1.73,2.863,2.6,4.2,2.6c2.663,0,4-1.068,4-3.201
		c0-2.398-2-7.198-6-14.398c-4.269-7.737-6.537-12.4-6.8-14c-0.269-0.538-0.669-1.27-1.2-2.2c-0.537-0.938-0.8-1.538-0.8-1.8l1.2-6
		l8,8.399V50.4l-3.6-1.601V49.6c2.131,3.199,4.262,6.399,6.398,9.6C568.531,65.862,570.4,71.2,570.4,75.2z M214.8,93.2
		c-0.537-0.537-1.337-1.469-2.4-2.8l-0.8,2c0.8,0.531,1.6,0.8,2.4,0.8C214.263,93.2,214.531,93.2,214.8,93.2z M262.4,0
		c0,1.337-0.538,3.069-1.6,5.2c-1.068,2.137-2.137,3.869-3.2,5.2c1.6-3.2,2.4-5.601,2.4-7.2c-16.538,5.337-30.538,13.2-42,23.6
		c0-1.337,0.263-2.8,0.8-4.399c4.531-4.262,11.463-8.8,20.8-13.601C248.4,4.269,256,1.337,262.4,0z M245.6,93.6
		c0,1.331-0.538,2.662-1.6,4c-0.538-0.802-1.2-1.2-2-1.2c-1.337,0-2.4,1.73-3.2,5.2c-0.269,2.662-0.668,5.331-1.2,8
		c-0.538-1.869-1.869-4.669-4-8.4c-0.269,1.6-0.938,2.4-2,2.4c-2.4,0-3.6-1.338-3.6-4c0-2.669,1.063-4,3.2-4
		c2.131,0,4.262,2.8,6.4,8.399c1.331-9.601,3.331-14.399,6-14.399C244.931,89.6,245.6,90.931,245.6,93.6z M246.4,34.4
		c0,3.2-1.2,4.8-3.6,4.8c-0.8,0-1.869-0.669-3.2-2c-0.538,2.131-1.738,3.2-3.6,3.2c-1.6,0-2.538-1.069-2.8-3.2c0-1.869,0-3.6,0-5.2
		c-0.538,0.8-1.069,1.601-1.6,2.4V32.8c0.531-1.067,1.731-2.668,3.6-4.8c-0.538,5.331,0,8,1.6,8c1.332,0,2-0.938,2-2.8
		c0-0.538-0.269-2.138-0.8-4.8l1.6-2c0.8,1.063,1.2,2.931,1.2,5.6c0.263,1.862,1.063,2.8,2.4,2.8c0.8,0,1.2-0.536,1.2-1.6
		c0-0.269-0.4-2-1.2-5.2l1.2-3.2C245.731,28.263,246.4,31.462,246.4,34.4z M256.4,30c0,3.2-0.668,6.8-2,10.8
		c0.263-2.137,0.4-4.536,0.4-7.199c0-4.801-1.469-8.538-4.4-11.2l0.4-5.2c1.6,1.337,2.932,3.337,4,6
		C255.862,25.862,256.4,28.131,256.4,30z M278,63.2c0,5.599-0.538,9.863-1.6,12.8h-0.8c0.262-5.869-0.138-12-1.2-18.399l-6.8-45.2
		c-0.538-2.663-1.069-4.663-1.6-6l2-5.601l6.8,13.2v2.4l-3.2-3.601c-0.269,0.538-0.4,1.069-0.4,1.601l6.8,42.8
		C278,58.531,278,60.531,278,63.2z M303.6,90.799c0.264,2.4-0.269,3.732-1.6,4c-0.8,0-2.138-0.536-4-1.6
		c-1.067,1.863-2.669,4.263-4.8,7.2c-3.2,3.462-7.2,5.73-12,6.8l-3.2,0.4c3.462-1.601,7.463-4.139,12-7.601
		c4-3.201,6.662-6.27,8-9.201c1.063-2.137,1.862-3.337,2.4-3.6C301.731,87.2,302.8,88.4,303.6,90.799z M301.2,19.2
		c0,1.068-0.4,2.27-1.2,3.6c-0.8-0.8-1.469-1.199-2-1.199c-1.338,0-2.399,1.736-3.2,5.199c-0.537,2.933-0.938,5.601-1.199,8
		c-0.537-1.868-1.869-4.536-4-8c-0.27,1.332-1.068,2-2.399,2c-2.138,0-3.2-1.199-3.2-3.6c0-2.932,0.931-4.4,2.8-4.4
		c2.4,0,4.531,2.801,6.4,8.4c1.6-9.6,3.6-14.4,6-14.4C300.531,14.8,301.2,16.269,301.2,19.2z M302.4,41.2l-2.802,4.4
		c-1.6,0.53-3.336,1.063-5.199,1.6c-2.938,0.8-4.399,2-4.399,3.6c1.331,5.063,2,8.663,2,10.801c0,4.8-0.138,7.6-0.399,8.399
		c0-2.938-0.537-6.737-1.601-11.399c-1.067-4.669-1.601-7.669-1.601-9c0-2.669,0.863-4.4,2.601-5.2c1.731-0.8,3.399-1.469,5-2
		c-1.338-0.538-2.399-0.8-3.2-0.8c0.264,0-0.537,0.53-2.398,1.6l0.398-2c0.531-0.8,1.133-1.8,1.801-3c0.662-1.2,1.399-1.8,2.199-1.8
		C296.399,36.4,298.932,38,302.4,41.2z M302.8,92c-1.067-1.601-2.269-2-3.6-1.201C300.531,91.862,301.731,92.262,302.8,92z
		 M311.2,81.2c-0.8-0.537-2-1.737-3.602-3.6c0,1.331,0.332,2.861,1,4.6c0.663,1.731,1.4,2.6,2.2,2.6
		C311.063,84.799,311.2,83.6,311.2,81.2z M516.8,98c-1.337,0-2.269-0.801-2.8-2.399c-1.869,2.399-3.6,3.6-5.2,3.6
		c-0.537,0-1.398-0.4-2.6-1.199C505,97.2,504.262,96.8,504,96.8c-1.338,0-3.869,0.802-7.6,2.4c-4.802,2.131-8.67,3.731-11.602,4.801
		c-5.868,1.861-12.269,2.799-19.2,2.799L465.2,106c5.862,0,11.73-1.201,17.6-3.601c3.2-1.069,7.731-3.2,13.602-6.399
		c4.262-2.399,7.331-3.601,9.198-3.601c0.531,0,1.332,0.531,2.4,1.601c1.063,1.063,2,1.601,2.8,1.601c1.063,0,2.263-1.338,3.602-4
		l1.198-0.802c-0.269,2.133,0.4,3.201,2,3.201c0.802,0,1.602-1.338,2.4-4l0.8-0.399C520.8,95.2,519.463,98,516.8,98z M548.4,25.2
		c0,1.063-0.538,2.4-1.602,4c-0.8-1.069-1.469-1.6-2-1.6c-1.337,0-2.398,1.861-3.2,5.6c-0.269,2.4-0.668,4.931-1.198,7.6
		c-0.802-1.868-2.139-4.536-4-8c-0.271,1.332-1.069,2-2.4,2c-2.138,0-3.2-1.199-3.2-3.6c0-2.938,0.933-4.4,2.8-4.4
		c2.4,0,4.531,2.801,6.4,8.4c1.6-9.6,3.6-14.4,6-14.4C547.6,20.8,548.4,22.269,548.4,25.2z M545.2,56c0,4.8-1.469,7.2-4.4,7.2
		c-2.669,0-4-1.469-4-4.4c0-1.868,0.531-4.137,1.602-6.8c1.6-3.2,2.398-5.068,2.398-5.6c0.531,2.131,0.663,3.6,0.4,4.399
		C543.862,52.4,545.2,54.131,545.2,56z M544,58c-1.068-1.337-2.669-2.399-4.8-3.2c-0.8,1.332-1.2,2.132-1.2,2.4
		c0,1.331,0.932,2,2.8,2C542.131,59.2,543.2,58.8,544,58z M564,96l-2.8,6.399l-6.8-3.602l2.8-6.398L564,96z"/>
</g>
</svg>
