<svg xmlns="http://www.w3.org/2000/svg" width="256" height="256"><path fill-opacity=".016" d="M0 128.004v128.004l128.25-.254 128.25-.254.254-127.75L257.008 0H0v128.004m.485.496c0 70.4.119 99.053.265 63.672.146-35.38.146-92.98 0-128C.604 29.153.485 58.1.485 128.5" fill="#1976D2" fill-rule="evenodd"/><path fill-opacity=".087" d="M133.5 22.153c-14.803 3.829-33.969 9.723-45.5 13.994-16.743 6.2-45.64 20.312-47.072 22.987-1.985 3.71-3.132 13.915-1.751 15.579.69.831 8.244 6.836 16.788 13.344 8.544 6.508 17.11 13.167 19.035 14.797l3.5 2.963-6.433 5.842c-10.035 9.112-24.084 20.514-29.744 24.14-9.366 5.999-16.306 5.328-18.436-1.783-1.047-3.493-.91-5.517.958-14.2 1.199-5.569 1.954-10.35 1.68-10.624-.275-.275-1.653 2.109-3.063 5.297-6.09 13.773-5.824 22.496.887 28.988 2.287 2.213 4.996 4.484 6.02 5.047 1.791.985 1.763 1.333-.754 9.301-4.313 13.655-3.307 21.389 3.645 28.004 5.091 4.845 9.904 5.245 15.733 1.306l4.492-3.036 1.105 7.701c1.295 9.032 3.927 14.69 8.838 19.003 4.908 4.309 10.217 5.505 22.126 4.983l10.055-.44 1.178 4.96c2.839 11.95 13.246 18.02 21.876 12.758 1.739-1.06 7.684-7.021 13.211-13.246C140.837 209.723 147.862 203 149.447 203c.304 0 .553 3.825.553 8.5s.378 8.5.84 8.5c.946 0 2.807-7.952 3.629-15.5.334-3.074 1.216-5.512 2.287-6.33 3.581-2.73 11.282-6.174 17.929-8.016l6.863-1.901 2.909 4.266c3.71 5.441 7.241 7.5 12.697 7.405 7.783-.136 13.284-3.162 16.903-9.296 3.817-6.469 3.623-14.128-1.415-56.128-2.507-20.9-5.032-42.95-5.61-49-.579-6.05-1.298-13.214-1.599-15.92-.508-4.574-.425-4.82 1.183-3.5 1.552 1.273 1.667 1.213 1.117-.58-1.46-4.752-7.288-18.449-7.862-18.473-.345-.015-1.148 1.228-1.784 2.762-.949 2.292.089 12.78 5.814 58.75 3.833 30.779 7.241 59.111 7.575 62.961.333 3.85.818 8.387 1.079 10.083.575 3.749-1.406 4.893-11.392 6.576-5.654.952-7.243.876-10.494-.501l-3.831-1.624 3.568-4.354c8.003-9.766 8.629-22.149 1.506-29.774-3.52-3.769-7.182-3.79-10.908-.064-4.298 4.298-5.51 10.029-4.149 19.615.622 4.377.796 8.248.388 8.603-.409.355-2.993 1.235-5.743 1.956-2.75.721-7.418 2.362-10.374 3.648-2.956 1.285-5.481 2.336-5.611 2.336-.131 0-.267-7.842-.305-17.427l-.067-17.427 3.172-1.106c8.776-3.059 14.685-10.614 14.685-18.776 0-2.257-1.814-17.728-4.032-34.379-3.442-25.848-6.925-54.466-6.958-57.17-.006-.432.86-.32 1.924.25 1.064.569 2.178 1.035 2.475 1.035.677 0-5.941-14.621-8.143-17.99l-1.627-2.491-1.373 3.365c-1.2 2.94-1.113 5.086.686 16.99 2.703 17.883 10.909 79.793 11.692 88.216.609 6.54.589 6.608-2.562 8.852-3.914 2.787-10.814 3.944-11.555 1.937-.672-1.817-7.515-55.586-7.522-59.098-.004-2.006.388-2.568 1.495-2.143.825.317 1.5.262 1.5-.122C149 78.999 140.667 61 139.964 61c-1.171 0-1.964 2.807-1.964 6.951 0 2.083 1.544 16.333 3.432 31.668 4.651 37.787 4.983 41.381 3.819 41.381-1.328 0-4.386-2.429-20.751-16.485-7.7-6.614-15.912-13.523-18.25-15.354-2.338-1.831-4.25-3.69-4.25-4.131 0-1.488 8.565-2.102 13.763-.987 2.837.608 7.088 2.403 9.447 3.989l4.29 2.883.763-2.707c1.234-4.377.113-6.647-6.595-13.36-5.183-5.187-6.738-7.537-8.497-12.848-1.185-3.575-2.454-8.713-2.821-11.418-.587-4.322-.467-4.841.991-4.281 2.412.925 2.083-.509-1.956-8.529-3.344-6.64-3.719-7.036-5-5.284-2.505 3.427-1.706 14.779 2.025 28.762L111.812 94h-3.688c-3.209 0-8.48 1.168-15.652 3.467-1.547.496-6.891-2.719-22.5-13.534-11.26-7.802-22.002-15.328-23.873-16.725l-3.4-2.54 10.9-5.469c20.85-10.46 67.681-26.826 79.663-27.838 6.994-.592 7.601-.486 8.664 1.501 1.532 2.863.587 4.481-8.904 15.234-7.238 8.202-11.864 15.395-10.669 16.59.288.288 1.837-.986 3.443-2.831a9084.39 9084.39 0 019.038-10.355c6.723-7.692 11.638-16.06 12.655-21.548 1.258-6.788-4.813-10.173-13.989-7.799m43.477 10.902c-1.046 2.526-1.081 4.814-.172 11.306 2.298 16.421 6.037 44.604 8.244 62.139 1.246 9.9 2.599 18.65 3.007 19.445 1.294 2.52 2.932-5.833 2.938-14.977.005-7.042-4.323-45.376-6.526-57.805-.54-3.048-.408-3.279 1.518-2.667 2.036.646 2.061.553.699-2.663-.777-1.833-2.64-6.258-4.141-9.833-3.501-8.337-3.984-8.766-5.567-4.945m-7.227 27.277c-.412 1.007-.75 3.975-.75 6.595 0 3.562.527 5.24 2.09 6.655 2.052 1.856 2.117 1.855 3.5-.036 2.077-2.841 1.807-4.807-.557-4.057-2.127.676-2.742-.737-3.263-7.489-.205-2.656-.451-3.058-1.02-1.668M88.238 63.75c-1.123 2.812-.662 10.035.75 11.736 1.175 1.415 1.476 1.404 3.155-.116 2.562-2.318 2.363-4.4-.393-4.108-2.08.22-2.232-.121-2.008-4.512.252-4.924-.297-6.02-1.504-3m129.149 8.432c-.681 3.171.081 10.898 3.277 33.225 2.29 16.001 4.742 37.088 5.447 46.861 1.337 18.499 2.202 20.834 4.692 12.656 1.837-6.035.903-22.535-2.852-50.407C224.179 86.524 224.23 87 224.973 87c.345 0 1.159.532 1.81 1.183s1.498.869 1.883.485c.646-.647-8.401-19.364-9.779-20.231-.338-.212-1.013 1.473-1.5 3.745M34.583 81.174C29.244 87.412 27 92.759 27 99.244c0 8.909 3.177 10.602 8.625 4.598 4.608-5.078 5.905-10.19 1.757-6.928C33.92 99.637 33 98.843 33 93.132c0-3.635.804-6.085 3.427-10.441 4.035-6.701 3.189-7.397-1.844-1.517m18.536 18.269c-2.304 9.148-.466 15.525 3.715 12.892 2.525-1.59 2.56-3.999.066-4.651-2.05-.536-2.154-.976-1.564-6.629.739-7.066-.599-8.039-2.217-1.612m178.523 11.307c-1.005 6.081-.741 9.664.885 11.986 1.905 2.719 4.473 1.914 4.473-1.402 0-1.349-.427-2.188-.95-1.865-1.776 1.097-3.264-3.556-2.585-8.083.376-2.51.26-4.386-.273-4.386-.512 0-1.209 1.688-1.55 3.75m-152.976 6.5c-3.558 2.888-10.743 9.202-15.968 14.033C53.392 139.885 40.849 149 38.317 149c-3.223 0-8.835 17.964-7.623 24.403.803 4.266 3.37 8.483 5.595 9.189 3.783 1.2 7.289-.952 17.13-10.514 10.454-10.157 15.191-13.163 30.034-19.059 4.14-1.645 10.587-3.686 14.325-4.537 7.901-1.797 13.226-4.706 13.213-7.217-.021-3.788-6.258-12.328-15.048-20.603C90.882 115.898 86.38 112 85.938 112c-.442 0-3.715 2.362-7.272 5.25m52.523-2.951c-2.012 2.142-2.051 2.452-.575 4.561 1.458 2.081 1.444 2.419-.175 4.207-3.885 4.293.681 3.204 7.311-1.743 4.342-3.241 4.133-4.489-.624-3.728-4.664.746-6.539-1.108-2.626-2.596 1.441-.548 2.342-1.447 2.001-1.998-1.013-1.639-3.013-1.15-5.312 1.297m-24.849 6.693c9.112 10.83 10.993 23.521 4.454 30.06-3.947 3.947-7.786 5.832-22.294 10.949-15.107 5.328-20.544 8.077-26.09 13.189-4.149 3.824-4.41 4.379-4.41 9.372 0 8.936 2.87 13.77 10.5 17.685 5.47 2.807 15.624 3.44 22.608 1.41 5.45-1.585 5.462-1.596 9.425-9.736 4.336-8.908 5.67-8.729 2.549.342-1.086 3.155-1.56 5.737-1.054 5.737 1.702 0 16.43-6.119 20.972-8.714 6.497-3.711 13-9.179 13-10.93 0-.831-2.74-7.532-6.089-14.891-4.878-10.722-5.956-13.983-5.423-16.411.366-1.667 1.168-3.341 1.782-3.721 1.049-.648 11.724 10.216 11.728 11.936.001.423-1.141.482-2.538.132l-2.539-.638 2.656 5.869c5.845 12.911 6.219 16.836 2.335 24.512-3.201 6.324-18.827 18.209-31.296 23.804-6.726 3.018-6.772 3.065-6.076 6.296 1.126 5.231 3.316 8.682 5.925 9.337 5.59 1.403 13.749-3.644 21.011-12.996 6.425-8.273 11.501-13.717 17.274-18.526l5.25-4.372-.005-9.094c-.003-5.001-.295-13.473-.65-18.826l-.644-9.734-4.309-2.085c-2.37-1.148-8.17-5.543-12.89-9.767-24.73-22.138-31.108-27.255-25.162-20.189m72.669 9.226c-1.101 1.805-2.003 3.587-2.005 3.959-.002.373 1.666 2.054 3.706 3.736l3.711 3.058 2.735-2.62 2.735-2.621 3.131 2.635c4.003 3.368 4.593 3.316 6.982-.611l1.974-3.247-4.048-4.003-4.048-4.004-2.228 2.75c-2.541 3.135-3.86 3.412-5.699 1.195-3.012-3.628-4.836-3.688-6.946-.227m-104.602 3.349l-1.907 3.566 3.914 3.597 3.913 3.597 2.23-2.796 2.229-2.796 3.609 2.753c3.868 2.95 5.418 2.598 7.752-1.763.854-1.595.455-2.541-2.251-5.332-3.933-4.058-5.144-4.197-7.569-.867l-1.84 2.526-3.494-2.985c-1.921-1.642-3.76-3.004-4.086-3.026-.325-.023-1.45 1.564-2.5 3.526m105.922 29.019c-.82 2.136 1.454 11.989 3.078 13.337.959.796 2.183.482 4.695-1.205 4.38-2.941 5.144-7.763 1.795-11.327-2.666-2.838-8.597-3.337-9.568-.805m-82.237 8.545c-2.766 2.969-2.639 4.689.595 8.064 3.367 3.515 5.593 3.552 7.834.133 2.013-3.073 1.472-4.42-3.234-8.049l-3.103-2.393-2.092 2.245m76.883 34.434c-.536 1.411-.978 3.998-.981 5.75l-.007 3.185-4.071-4.75c-4.162-4.856-6.285-5.837-7.241-3.346-1.011 2.634.477 5.298 3.86 6.911 1.976.943 4.165 3.143 5.271 5.298 2.36 4.6 3.262 3.409 3.954-5.217.283-3.518.707-6.396.943-6.396s1.306.469 2.378 1.043c2.429 1.3 3.807-1.268 1.908-3.556-1.932-2.329-4.922-1.793-6.014 1.078M85.75 217.572c-.899.912-1 8.613-.143 10.846.843 2.196 4.109 1.981 5.358-.352 1.482-2.769 1.296-3.284-.932-2.577-2.012.639-2.544-.397-3.253-6.334-.154-1.29-.618-2.002-1.03-1.583" fill="#1976D2" fill-rule="evenodd"/><path fill-opacity=".345" d="M129 23.641c-27.87 7.396-53.003 16.726-74.107 27.51-12.877 6.58-13.669 7.159-14.75 10.767C39.514 64.016 39 67.739 39 70.193v4.46L59.143 90.06l20.144 15.407-7.394 6.808c-10.097 9.297-27.074 22.741-32.168 25.475C30.638 142.625 23 139.364 23 130.608c0-2.466.696-7.486 1.547-11.155 2.032-8.761 1.419-10.087-1.557-3.369-3.418 7.715-3.927 20.077-1.019 24.724 1.139 1.82 3.445 4.07 5.125 5 6.228 3.45 6.101 3.05 3.357 10.565-3.772 10.332-4.234 17.382-1.508 23.013 3.243 6.7 7.155 9.614 12.904 9.614 3.735 0 5.435-.61 8.312-2.981 3.606-2.973 3.617-2.975 4.214-.75.329 1.227.604 3.837.611 5.799.025 6.514 2.877 13.795 7.03 17.948 5.584 5.584 12.529 7.438 24.553 6.556l9.207-.676 1.247 5.198c1.484 6.189 6.527 12.272 11.546 13.929 5.98 1.973 9.089.472 17.349-8.379 4.17-4.467 11.182-11.727 15.582-16.133l8-8.011.515 9.5c.284 5.225.822 8.825 1.196 8 1.555-3.431 2.778-9.82 2.783-14.542l.006-5.042 6.25-3.627c3.438-1.995 9.598-4.633 13.691-5.863l7.441-2.237 1.539 2.406c5.716 8.932 11.616 11.281 20.766 8.269 7.787-2.564 11.118-6.825 12.499-15.991.91-6.043.473-11.516-3.625-45.312-4.834-39.877-7.507-64.488-7.541-69.433-.017-2.441.205-2.686 1.48-1.628 2.03 1.685 1.981 1.485-1.865-7.574-1.85-4.359-3.684-8.826-4.074-9.926-.645-1.816-.827-1.723-1.978 1-1.095 2.593-.286 10.871 5.959 61 3.975 31.9 7.551 61.716 7.947 66.257l.72 8.258-3.854 1.636c-2.12.9-7.005 1.849-10.855 2.107-5.992.403-7.36.177-9.5-1.57l-2.5-2.04 3.13-3.324c3.842-4.08 5.022-6.319 6.279-11.912 1.272-5.663-.285-13.017-3.587-16.941-4.951-5.885-13.356-2.635-14.934 5.774-.598 3.189-.075 16.927.764 20.053.227.848-2.595 2.26-8.152 4.078-4.675 1.529-9.963 3.545-11.75 4.478l-3.25 1.697v-14.9c0-8.196-.28-16.3-.622-18.011-.497-2.486-.247-3.23 1.25-3.709 9.378-3.007 14.526-7.575 16.406-14.559.917-3.403.643-7.788-1.514-24.263-5.949-45.431-7.455-57.483-8.119-64.974-.694-7.825-.687-7.858 1.451-6.714 1.376.736 2.148.783 2.148.129 0-1.543-8.345-18.05-9.125-18.05-1.995 0-2.53 6.01-1.247 14.015 2.174 13.565 12.216 90.088 12.399 94.485.092 2.2.123 4.48.07 5.066-.168 1.848-7.717 5.434-11.438 5.434-3.248 0-3.617-.292-4.11-3.25-1.553-9.327-7.494-60.138-7.08-60.552.265-.266 1.242.144 2.169.909 1.965 1.622 2.028 1.817-3.046-9.438-7.305-16.203-7.711-11.556-2.665 30.522 2.263 18.87 4.252 35.547 4.42 37.059.497 4.458-2.342 3.411-10.977-4.048-4.329-3.74-13.858-11.841-21.177-18.004-12.98-10.93-13.242-11.229-10.684-12.201 6.007-2.284 14.492-.85 21.721 3.67 2.052 1.283 3.964 2.333 4.25 2.333.286 0 .52-1.983.52-4.407 0-4.044-.399-4.741-4.838-8.457-7.166-6-11.373-14.872-13.46-28.386-.336-2.173-.031-2.75 1.449-2.75 1.672 0 1.487-.77-1.714-7.125-4.239-8.417-5.65-8.104-6.214 1.378-.328 5.509 2.286 18.663 6.336 31.878.407 1.327-.577 1.765-5.279 2.35-3.179.396-7.75 1.387-10.158 2.202-2.408.816-5.108 1.284-6 1.04-2.1-.575-46.521-31.556-46.941-32.739-.495-1.393 19.834-11.19 34.819-16.779 40.456-15.091 60.003-20.069 63.526-16.176 2.475 2.734 1.722 4.635-4.776 12.072-9.184 10.511-12.56 15.04-13.716 18.399-.928 2.695-.573 2.492 3.497-2C141.066 44.456 147 35.326 147 29.006c0-6.935-5.69-8.631-18-5.365m48.069 10.192c-1.014 2.448-.795 5.703 1.298 19.306 1.384 8.998 3.449 24.236 4.588 33.861 3.457 29.21 5.186 39.5 6.302 37.505 2.43-4.343 1.931-17.974-1.665-45.475C183.403 46.994 183.5 48.34 185.5 50c.825.685 1.5.819 1.5.299 0-1.221-6.992-17.544-7.969-18.605-.408-.443-1.291.52-1.962 2.139M169.764 62c-1.673 5.681-.232 12 2.736 12 1.498 0 4.148-3.915 2.785-4.115a52.822 52.822 0 00-2.285-.25c-1.04-.094-1.653-1.668-2-5.135-.414-4.141-.626-4.571-1.236-2.5m-81.097 1.667c-.976.975-.785 9.598.247 11.229 1.192 1.882 4.086.64 4.086-1.754 0-1.215-.643-1.869-1.75-1.781-1.414.112-1.75-.677-1.75-4.112 0-2.339-.037-4.251-.083-4.25-.046 0-.384.301-.75.668m128.978 9.15c-.432 2.704.729 13.916 3.376 32.589 2.22 15.656 4.681 36.428 5.47 46.16.79 9.732 1.632 17.891 1.873 18.131.24.24.989-1.236 1.664-3.281 1.815-5.502.621-31.558-2.379-51.916-1.378-9.35-2.821-19.636-3.206-22.857l-.7-5.858 2.628 1.723c1.446.947 2.629 1.435 2.629 1.085 0-.985-7.656-15.855-9.265-17.995-1.333-1.772-1.476-1.62-2.09 2.219m-183.52 9.402c-6.693 8.864-8.603 15.764-6.15 22.216 1.816 4.775 6.602 2.397 10.434-5.185 1.686-3.337.811-4.425-1.409-1.75-1.965 2.367-3.784 1.761-4.5-1.5-.915-4.165.106-7.987 3.607-13.508 4.171-6.576 2.908-6.751-1.982-.273M54.64 95.773c-.308.498-1.047 3.079-1.642 5.736-1.824 8.138.745 13.605 4.587 9.763 1.525-1.524 1.497-1.698-.383-2.393-2.745-1.015-3.454-3.801-2.289-8.987.954-4.247.843-5.925-.273-4.119m177.273 16.632c-.873 6.229.263 11.095 2.59 11.095 1.083 0 2.121-.787 2.307-1.75.204-1.061-.276-1.75-1.218-1.75-1.617 0-2.35-2.065-2.842-8l-.29-3.5-.547 3.905m-150.907 2.356c-1.921 1.506-9.121 7.862-16 14.124-11.37 10.352-18.424 15.686-26.781 20.253-6.61 3.613-10.387 24.11-5.626 30.531 4.553 6.141 11.666 3.618 21.423-7.601 2.908-3.343 7.632-7.635 10.499-9.538 5.608-3.722 24.753-11.884 30.479-12.993 7.014-1.359 12.763-3.656 14.935-5.968 2.156-2.294 2.171-2.465.526-5.717-3.063-6.051-9.822-14.059-16.887-20.006-3.82-3.215-7.424-5.841-8.01-5.835-.585.006-2.636 1.244-4.558 2.75m50.649-.932c-2.092 2.311-2.086 3.597.026 5.709 1.574 1.574 1.527 1.799-.75 3.549-1.725 1.326-1.98 1.875-.877 1.891 1.891.027 10.946-5.592 10.946-6.792 0-.472-1.867-.82-4.149-.772-4.439.092-6.343-1.806-2.906-2.897 1.13-.358 2.055-1.071 2.055-1.584 0-1.572-2.596-1.037-4.345.896m-24.834 8.318c5.517 7.306 7.179 11.647 7.179 18.744 0 10.082-3.481 12.836-26.8 21.204-14.852 5.33-20.348 8.224-26.206 13.796-4.342 4.131-4.754 6.099-2.931 14.009 1.458 6.322 4.506 10.013 10.559 12.784 6.269 2.871 13.372 3.338 21.979 1.447l6.101-1.341 3.838-7.872c2.111-4.33 3.998-7.714 4.192-7.519.195.194-.565 2.772-1.689 5.727-1.123 2.956-2.042 5.933-2.042 6.615-.002 2.957 25.688-9.14 32.253-15.188l3.754-3.458-1.939-4.798c-1.067-2.638-3.953-9.217-6.414-14.62-3.764-8.264-4.334-10.308-3.595-12.885.483-1.685 1.122-3.308 1.42-3.606.613-.612 10.404 9.84 10.475 11.181.025.476-.855.631-1.955.343-1.1-.287-2-.223-2 .144s1.57 4.262 3.488 8.656c5.496 12.591 4.586 19.472-3.627 27.425-5.867 5.682-20.119 15.152-27.25 18.107l-5.796 2.403.621 4.027c1.008 6.55 3.488 9.039 8.931 8.966 5.674-.076 11.183-3.732 17.418-11.559 8.035-10.088 15.536-18.063 19.378-20.606l3.837-2.539-.011-15.617c-.016-21.989-.126-22.439-6.385-25.972-2.828-1.596-10.759-8.019-17.624-14.273-11.658-10.622-18.561-16.413-21.874-18.352-.767-.449.455 1.633 2.715 4.627m71.932 8.693c-1.654 2.802-1.633 2.884 1.582 6 1.793 1.738 3.598 3.16 4.011 3.16.412 0 1.741-1.141 2.952-2.536l2.202-2.535 3.671 3.043 3.671 3.044 2.079-2.643c2.698-3.43 2.637-3.969-.844-7.45-3.55-3.55-4.104-3.587-7.032-.471l-2.304 2.452-3.215-2.452c-4.082-3.114-4.726-3.077-6.773.388m-104.3 3.251c-1.489 2.879-1.474 3.228.213 5.093 3.362 3.715 5.305 4.192 7.743 1.902 2.854-2.682 3.735-2.626 6.591.414 2.991 3.184 3.405 3.145 6.054-.576l2.191-3.076-3.319-3.424c-3.972-4.098-4.739-4.189-7.388-.878l-2.038 2.547-3.444-2.547c-1.895-1.4-3.796-2.546-4.225-2.546-.429 0-1.499 1.391-2.378 3.091m106.797 26.571c-2.955 1.193.126 16.338 3.324 16.338 1.915 0 8.426-5.914 8.426-7.653 0-5.549-6.894-10.644-11.75-8.685m-83.889 11.909c-1.656 2.528-1.621 2.635 2.031 6.25l3.716 3.679 2.513-2.883 2.513-2.884-3.263-3.366c-3.917-4.041-5.288-4.186-7.51-.796m78.687 31.871c-.659.794-1.502 3.572-1.874 6.175l-.677 4.732-2.734-4.132c-3.272-4.944-6.503-7.058-7.362-4.819-.943 2.457-.011 4.988 2.251 6.116 3.394 1.692 5.487 3.722 6.45 6.255 1.41 3.707 2.602 1.815 3.369-5.341.666-6.218.838-6.567 2.969-6.032 2.888.724 3.757-.159 2.49-2.527-1.195-2.233-3.235-2.411-4.882-.427m-90.44 15.687c-1.117 3.843-.366 8.01 1.67 9.27 1.373.85 1.997.759 2.735-.399 1.475-2.314 1.165-3.792-.763-3.639-1.316.105-1.89-.854-2.314-3.861-.528-3.748-.612-3.834-1.328-1.371" fill="#1976D2" fill-rule="evenodd"/><path fill-opacity=".174" d="M132.5 23.136C109.531 28.504 75.972 40.715 55 51.335c-13.927 7.053-14.874 8.109-15.71 17.519l-.502 5.646 6.843 5c3.765 2.75 12.857 9.66 20.206 15.356l13.362 10.356-3.85 4.027c-6.063 6.342-28.334 24.668-33.849 27.854-5.261 3.039-11.88 3.844-15.532 1.89-3.317-1.775-4.218-7.859-2.439-16.472.865-4.187 1.782-8.378 2.036-9.312.255-.935-.724.723-2.176 3.682-3.144 6.408-4.294 16.519-2.4 21.092 1.221 2.949 5.163 6.96 9.86 10.033l2.301 1.505-2.682 7.99c-4.639 13.818-3.517 21.737 4.016 28.351 4.812 4.225 9.661 4.282 15.088.176 2.16-1.635 4.201-2.985 4.534-3 .333-.015.854 3.263 1.158 7.286.919 12.147 5.006 19.039 13.583 22.906 3.686 1.661 6.117 1.911 15.976 1.638l11.628-.321.739 4.328c1.551 9.089 7.696 15.135 15.381 15.135 5.222 0 7.448-1.736 19.183-14.96 8.288-9.341 16.582-17.04 18.355-17.04.49 0 .93 3.713.977 8.25.069 6.588.27 7.646.999 5.25.502-1.65 1.206-6.067 1.564-9.815l.65-6.815 5.101-2.937c5.911-3.403 13.719-6.489 18.854-7.453 3.385-.635 3.747-.436 6.344 3.489 1.515 2.289 4.003 4.807 5.529 5.596 6.805 3.52 18.915.339 22.83-5.995 4.286-6.935 4.172-12.724-1.119-57.056-6.342-53.123-7.806-69.353-6.289-69.729.735-.182-.128-3.302-2.401-8.669-6.426-15.177-6.267-10.291 1.761 54.173 3.987 32.016 7.503 62.117 7.814 66.891l.564 8.681-5.891 1.712c-9.509 2.765-20.396 1.85-20.396-1.714 0-.589 1.195-2.485 2.655-4.215 6.079-7.201 7.973-16.811 4.807-24.39-2.244-5.371-4.329-7.254-8.028-7.254-3.99 0-8.027 4.313-9.027 9.645-.643 3.428.026 14.638 1.125 18.855.46 1.765-.746 2.422-10.255 5.589-5.927 1.975-11.452 3.891-12.277 4.258-1.301.58-1.514-1.773-1.609-17.742l-.109-18.411 2.609-.54c4.545-.939 11.664-6.197 13.431-9.92 2.438-5.138 2.132-11.142-2.265-44.404-2.169-16.406-4.432-34.555-5.029-40.33a4239.796 4239.796 0 00-1.394-13.317c-.274-2.514-.053-2.754 2.052-2.226 2.237.562 2.117.115-2.34-8.682-4.69-9.255-4.702-9.268-5.634-6.141-.679 2.275-.22 8.038 1.672 21 2.685 18.399 9.927 73.13 11.113 83.979.636 5.823.539 6.214-2.05 8.25-3.807 2.995-10.182 4.793-12.29 3.467-1.324-.832-2.399-6.847-5.348-29.936-4.299-33.651-4.379-34.827-2.309-34.032.825.316 1.5.417 1.5.224 0-.194-1.753-4.288-3.895-9.1-3.41-7.66-4.027-8.5-4.96-6.757-.586 1.094-.858 3.516-.605 5.38.459 3.384 6.955 57.688 8.091 67.641.36 3.156.21 5.25-.376 5.25-1.769 0-7.597-4.459-22.298-17.061-7.982-6.841-16.525-14.111-18.985-16.155-5.515-4.582-4.494-5.751 5.028-5.759 6.459-.005 15.74 3.127 17.447 5.889 1.203 1.947 2.553.097 2.553-3.501 0-2.927-.878-4.287-5.609-8.69-6.368-5.927-9.744-11.88-11.883-20.954-1.95-8.27-1.952-11.154-.008-10.407 2 .767 1.969.625-1.56-7.134-2.777-6.106-3.169-6.543-4.237-4.728-2.07 3.517-1.204 14.337 2.136 26.7C110.578 86.635 112 92.597 112 93.45c0 1.194-1.153 1.55-5.025 1.55-2.764 0-7.592.902-10.729 2.005l-5.704 2.005-4.021-2.837c-2.212-1.561-12.889-8.999-23.728-16.531-10.838-7.531-19.934-14.061-20.212-14.51-.752-1.218 15.328-9.392 29.481-14.987 21.773-8.606 53.957-18.965 61.194-19.697 7.693-.777 9.744.179 9.744 4.54 0 1.996-1.94 4.892-7.119 10.628C128.976 53.262 123 61.46 123 63.285c0 1.572 16.415-18.017 19.858-23.698 8.043-13.272 3.938-19.792-10.358-16.451m44.8 10.881c-.892 2.363-.734 5.439.749 14.527 1.536 9.421 4.836 34.311 9.672 72.956.544 4.344.72 4.649 1.345 2.327 2.199-8.166 1.955-14.977-1.514-42.327-1.953-15.4-3.794-29.048-4.091-30.33-.458-1.98-.235-2.233 1.489-1.686 1.856.589 1.732-.05-1.461-7.509-4.946-11.555-4.869-11.457-6.189-7.958M88.079 66.583c.048 1.165.285 1.402.604.605.289-.722.253-1.585-.079-1.917-.332-.332-.568.258-.525 1.312m81.434 1.404c.594 3.898 2.725 6.602 4.391 5.572 1.658-1.024 1.34-3.59-.364-2.936-.965.37-1.984-.571-3.009-2.781l-1.549-3.342.531 3.487M88 70.994c0 .626.481 2.037 1.07 3.136.854 1.596 1.358 1.76 2.5.812 1.563-1.297 1.996-3.41.511-2.492-.506.313-1.631-.143-2.5-1.012-.921-.921-1.581-1.106-1.581-.444m130.588.256c-.324.963-.78 2.376-1.015 3.142-.235.765 1.515 15.052 3.89 31.75 2.374 16.697 4.855 37.558 5.514 46.358.658 8.8 1.338 16.143 1.511 16.317.172.174.868-1.367 1.547-3.425 1.837-5.565.663-26.127-2.952-51.69C225.387 101.713 224 90.56 224 88.917c0-2.677.207-2.876 2-1.917 2.735 1.464 2.539.746-2.462-9-3.123-6.084-4.53-8.003-4.95-6.75M34.221 82.75c-6.052 7.701-7.95 13.83-6.244 20.166 1.524 5.66 4.053 5.209 8.81-1.57 2.806-4 2.956-6.329.25-3.88-5.485 4.964-6.975-4.385-2.106-13.216 1.592-2.888 2.746-5.25 2.566-5.25-.181 0-1.655 1.688-3.276 3.75m19.255 18.559c-.995 6.639-.319 10.191 1.941 10.191 1.054 0 2.104-.562 2.333-1.25.229-.687-.266-1.25-1.099-1.25-2.07 0-2.947-3.288-2.144-8.042.368-2.177.432-3.958.142-3.958-.289 0-.817 1.939-1.173 4.309m178.684 14.319c-.118 4.505.257 6.473 1.416 7.435 1.307 1.084 1.732 1.063 2.485-.127 1.329-2.1 1.138-2.95-.519-2.314-1.537.59-2.199-1.171-2.862-7.622-.207-2.011-.428-.893-.52 2.628m-152.82.214c-2.662 2.114-8.89 7.573-13.84 12.132-12.364 11.386-17.939 15.714-24.533 19.043-5.146 2.598-5.835 3.351-7.919 8.664-1.256 3.2-2.498 8.969-2.762 12.819-.421 6.161-.198 7.408 1.868 10.406 5.3 7.694 7.983 6.912 21.715-6.325 6.114-5.892 12.864-11.402 15.682-12.8 8.162-4.047 20.461-8.644 28.759-10.749 8.514-2.159 13.69-5.163 13.69-7.945C112 135.898 90.516 112 85.851 112c-.919 0-3.849 1.729-6.511 3.842m53.899-3.12c-.694.249-1.743 1.351-2.33 2.448-.833 1.556-.686 2.419.666 3.913 1.649 1.822 1.641 2.022-.17 4.049l-1.905 2.133 4.067-2.06c2.237-1.132 4.712-2.839 5.5-3.793 1.314-1.591 1.19-1.688-1.504-1.176-1.615.307-3.527.331-4.25.054-2.053-.788-1.541-3.27.858-4.158 1.194-.441 1.757-1.041 1.25-1.332-.507-.292-1.489-.327-2.182-.078M103 117.618c0 .34 1.409 2.223 3.132 4.185 7.296 8.31 9.976 20.227 6.011 26.729-2.381 3.906-10.518 8.176-25.643 13.458-13.626 4.759-19.02 7.605-25.187 13.289-4.015 3.701-4.311 4.33-4.291 9.098.072 16.723 15.989 25.327 36.237 19.589 3.167-.897 4.222-1.963 6.702-6.765 3.22-6.238 3.932-6.581 1.48-.715-.857 2.052-1.318 3.971-1.024 4.265 1.701 1.701 23.697-8.611 31.465-14.752 6.28-4.964 6.342-4.029-1.394-20.937-5.473-11.962-6.294-15.239-4.52-18.044.782-1.237 1.458-.989 4.076 1.5 1.726 1.64 4.065 4.271 5.197 5.847l2.059 2.865-2.15-.682c-2.983-.947-2.79.859.946 8.842 4.013 8.577 4.636 13.404 2.465 19.09-2.85 7.462-18.338 19.719-32.972 26.094-6.445 2.808-6.626 2.986-6.011 5.911 1.903 9.061 5.879 12.357 12.511 10.37 5.272-1.579 10.482-6.222 19.331-17.224 4.064-5.052 10.055-11.281 13.315-13.842l5.927-4.656-.37-16.317c-.515-22.697-.272-21.782-6.68-25.129-2.962-1.548-9.599-6.752-14.749-11.566C117.77 127.752 105.035 117 103.846 117c-.465 0-.846.278-.846.618m76.557 12.605c-2.21 3.154-1.97 4.252 1.583 7.241l3.14 2.642 2.86-2.74 2.86-2.74 2.805 2.687c3.498 3.352 4.524 3.361 6.686.06 1.703-2.598 1.681-2.667-1.944-6.25l-3.666-3.623-2.311 2.854c-1.915 2.365-2.648 2.675-4.273 1.805-1.079-.577-2.542-1.749-3.252-2.604-1.739-2.096-2.647-1.961-4.488.668m-104.734 3.736c-1.654 2.908-1.634 2.988 1.44 5.994 1.714 1.676 3.444 3.047 3.843 3.047.4 0 1.61-1.211 2.688-2.692l1.961-2.692 3.199 2.692c3.973 3.343 5.342 3.377 7.056.174 1.251-2.338 1.102-2.771-2.081-6.058l-3.429-3.539-2.202 2.557c-2.707 3.145-2.838 3.146-6.887.058-1.803-1.375-3.42-2.497-3.594-2.494-.174.004-1.071 1.333-1.994 2.953m105.02 28.486c-.88 1.932-.718 3.662.772 8.25 2.228 6.862 3.98 7.614 8.932 3.837 4.5-3.433 4.684-7.455.53-11.609-3.807-3.807-8.615-4.031-10.234-.478m-82.368 10.233c-1.749 2.671-1.744 2.687 2.025 6.141l3.779 3.463 1.838-2.391c2.527-3.286 2.359-4.313-1.194-7.302-3.832-3.225-4.28-3.219-6.448.089m78.593 32.195c-1.297 2.423-1.401 4.202-.129 2.191.759-1.199 1.172-1.217 2.509-.107 2.004 1.663 3.333.504 1.945-1.695-1.559-2.472-3.134-2.614-4.325-.389m-13.053 2.877c.021 2.41 1.019 3.586 4.243 5.002 1.516.667 3.526 2.823 4.465 4.792 1.433 3.005 1.822 3.29 2.422 1.768.393-.996.701-3.387.685-5.312-.023-2.792-.161-3.036-.68-1.203-.618 2.185-.836 2.075-4.45-2.25-3.92-4.691-6.711-5.859-6.685-2.797m-76.936 11.833c.048 1.165.285 1.402.604.605.289-.722.253-1.585-.079-1.917-.332-.332-.568.258-.525 1.312m-.612 5.367c.636 3.895 2.345 5.451 4.249 3.87 1.685-1.398 1.637-2.82-.094-2.82-.758 0-2.13-1.012-3.048-2.25-1.655-2.23-1.665-2.219-1.107 1.2" fill="#1976D2" fill-rule="evenodd"/></svg>